<?xml version="1.0" standalone="no"?>
<!DOCTYPE svg PUBLIC "-//W3C//DTD SVG 20010904//EN"
 "http://www.w3.org/TR/2001/REC-SVG-20010904/DTD/svg10.dtd">
<svg version="1.0" xmlns="http://www.w3.org/2000/svg"
 width="800.000000pt" height="800.000000pt" viewBox="0 0 800.000000 800.000000"
 preserveAspectRatio="xMidYMid meet">

<g transform="translate(0.000000,800.000000) scale(0.100000,-0.100000)"
fill="#000000" stroke="none">
<path d="M3891 7266 c2 -2 87 -6 189 -8 123 -4 155 -3 95 2 -95 8 -291 13
-284 6z"/>
<path d="M3767 7253 c18 -2 50 -2 70 0 21 2 7 4 -32 4 -38 0 -55 -2 -38 -4z"/>
<path d="M3643 7243 c15 -2 37 -2 50 0 12 2 0 4 -28 4 -27 0 -38 -2 -22 -4z"/>
<path d="M4404 7230 c1205 -160 2201 -947 2629 -2077 48 -125 128 -393 126
-422 0 -9 -7 9 -15 39 -77 291 -212 616 -339 814 -19 30 -35 58 -35 61 0 3
-30 49 -66 103 -147 214 -296 382 -499 560 -514 452 -1110 725 -1785 819 -195
27 -605 24 -814 -5 -128 -18 -163 -27 -176 -42 -10 -11 -25 -20 -34 -20 -9 0
-16 -8 -16 -18 0 -15 -16 -22 -82 -36 -117 -25 -368 -108 -506 -167 -835 -357
-1482 -1081 -1747 -1954 -35 -115 -45 -142 -45 -117 0 7 -5 12 -11 12 -6 0 -8
-7 -5 -17 4 -10 4 -15 1 -11 -11 10 -47 -32 -56 -66 -15 -56 -58 -319 -70
-434 -15 -145 -6 -559 15 -702 38 -251 96 -486 172 -698 74 -203 185 -447 255
-557 21 -34 39 -65 39 -69 0 -8 37 -61 63 -90 9 -11 17 -24 17 -28 0 -9 76
-114 96 -133 5 -5 36 -43 68 -82 70 -88 295 -311 391 -388 39 -31 79 -64 90
-74 48 -40 228 -163 324 -220 273 -163 553 -281 866 -362 162 -42 137 -44 -35
-2 -255 61 -583 190 -810 319 -273 156 -486 319 -710 543 -466 468 -761 1032
-889 1702 -48 250 -65 625 -40 889 114 1235 894 2278 2044 2733 148 58 325
113 462 143 46 9 81 19 79 22 -10 9 -268 -52 -392 -93 -1117 -371 -1949 -1320
-2173 -2478 -47 -245 -56 -340 -56 -627 0 -270 8 -374 46 -585 119 -658 431
-1256 899 -1725 543 -546 1219 -865 2000 -945 195 -21 566 -16 745 10 684 96
1280 369 1770 812 284 257 589 673 755 1029 368 789 417 1638 142 2454 -132
390 -346 765 -613 1075 -90 104 -290 305 -394 395 -281 244 -655 453 -1035
580 -208 69 -626 152 -749 149 -20 0 26 -9 103 -19z m-867 -176 c-3 -3 -12 -4
-19 -1 -8 3 -5 6 6 6 11 1 17 -2 13 -5z m-50 -10 c-3 -3 -12 -4 -19 -1 -8 3
-5 6 6 6 11 1 17 -2 13 -5z m2424 -651 c13 -16 12 -17 -3 -4 -10 7 -18 15 -18
17 0 8 8 3 21 -13z m54 -43 c10 -11 16 -20 13 -20 -3 0 -13 9 -23 20 -10 11
-16 20 -13 20 3 0 13 -9 23 -20z m71 -62 l29 -33 -32 29 c-31 28 -38 36 -30
36 2 0 16 -15 33 -32z m139 -128 c38 -38 67 -70 64 -70 -2 0 -36 32 -74 70
-38 39 -67 70 -64 70 2 0 36 -31 74 -70z m125 -135 c19 -19 32 -35 29 -35 -3
0 -20 16 -39 35 -19 19 -32 35 -29 35 3 0 20 -16 39 -35z m-4590 -38 c0 -2
-10 -12 -22 -23 l-23 -19 19 23 c18 21 26 27 26 19z m4655 -37 c10 -11 16 -20
13 -20 -3 0 -13 9 -23 20 -10 11 -16 20 -13 20 3 0 13 -9 23 -20z m-4705 -23
c0 -2 -10 -12 -22 -23 l-23 -19 19 23 c18 21 26 27 26 19z m4751 -34 c13 -16
12 -17 -3 -4 -10 7 -18 15 -18 17 0 8 8 3 21 -13z m-4834 -70 c-24 -32 -68
-94 -97 -138 -49 -75 -84 -120 -65 -85 35 63 191 280 201 280 3 0 -15 -26 -39
-57z m4864 30 c13 -16 12 -17 -3 -4 -10 7 -18 15 -18 17 0 8 8 3 21 -13z m30
-40 c13 -16 12 -17 -3 -4 -10 7 -18 15 -18 17 0 8 8 3 21 -13z m30 -40 c13
-16 12 -17 -3 -4 -10 7 -18 15 -18 17 0 8 8 3 21 -13z m-5101 -213 c-6 -11
-13 -20 -16 -20 -2 0 0 9 6 20 6 11 13 20 16 20 2 0 0 -9 -6 -20z m5240 0 c6
-11 8 -20 6 -20 -3 0 -10 9 -16 20 -6 11 -8 20 -6 20 3 0 10 -9 16 -20z
m-5349 -204 c-47 -95 -87 -172 -89 -171 -8 6 161 345 172 345 2 0 -36 -78 -83
-174z m5379 154 c6 -11 8 -20 6 -20 -3 0 -10 9 -16 20 -6 11 -8 20 -6 20 3 0
10 -9 16 -20z m76 -141 c25 -50 44 -93 42 -95 -2 -2 -25 39 -51 91 -26 52 -45
95 -42 95 3 0 25 -41 51 -91z m83 -184 c0 -5 -6 1 -14 15 -8 14 -14 30 -14 35
0 6 6 -1 14 -15 8 -14 14 -29 14 -35z m-5638 -42 c-12 -20 -14 -14 -5 12 4 9
9 14 11 11 3 -2 0 -13 -6 -23z m5659 -8 c0 -5 -5 -3 -10 5 -5 8 -10 20 -10 25
0 6 5 3 10 -5 5 -8 10 -19 10 -25z m-5679 -42 c-12 -20 -14 -14 -5 12 4 9 9
14 11 11 3 -2 0 -13 -6 -23z m5699 -8 c0 -5 -5 -3 -10 5 -5 8 -10 20 -10 25 0
6 5 3 10 -5 5 -8 10 -19 10 -25z m-5726 -69 c-9 -26 -18 -45 -20 -43 -2 2 3
25 12 51 9 26 18 45 20 43 2 -2 -3 -25 -12 -51z m5771 -56 c14 -40 25 -78 24
-84 0 -10 -35 82 -54 146 -17 55 7 5 30 -62z m-2772 -5 c111 -19 234 -64 331
-121 79 -46 203 -156 258 -228 18 -23 -1 -6 -41 37 -127 135 -306 237 -489
277 -106 24 -279 26 -384 6 -261 -51 -485 -208 -623 -437 -48 -80 -115 -250
-115 -293 0 -12 -6 -30 -12 -39 -12 -15 -99 -17 -1033 -23 -1045 -7 -1084 -6
-1098 30 -3 7 -1 19 4 27 7 11 9 10 9 -6 0 -20 7 -20 1049 -20 l1049 0 12 40
c40 134 77 229 115 295 198 340 586 522 968 455z m-3034 -44 c-7 -23 -14 -39
-16 -37 -3 2 1 23 8 45 7 23 14 39 16 37 3 -2 -1 -23 -8 -45z m-32 -103 c-3
-8 -6 -5 -6 6 -1 11 2 17 5 13 3 -3 4 -12 1 -19z m5880 0 c-3 -8 -6 -5 -6 6
-1 11 2 17 5 13 3 -3 4 -12 1 -19z m-5899 -76 c-6 -29 -13 -50 -16 -47 -2 2 1
27 8 55 7 28 14 49 16 47 3 -2 -1 -27 -8 -55z m5909 36 c-3 -8 -6 -5 -6 6 -1
11 2 17 5 13 3 -3 4 -12 1 -19z m10 -40 c-3 -8 -6 -5 -6 6 -1 11 2 17 5 13 3
-3 4 -12 1 -19z m-5983 -32 c-3 -21 -8 -35 -11 -32 -2 2 -1 20 3 40 3 21 8 35
11 32 2 -2 1 -20 -3 -40z m3784 -111 c24 -33 53 -78 63 -100 11 -22 14 -31 7
-21 -78 117 -115 169 -154 216 l-46 55 42 -45 c24 -25 63 -72 88 -105z m2209
103 c-3 -8 -6 -5 -6 6 -1 11 2 17 5 13 3 -3 4 -12 1 -19z m180 0 c-3 -8 -6 -5
-6 6 -1 11 2 17 5 13 3 -3 4 -12 1 -19z m-2978 -33 c107 -34 194 -88 282 -175
61 -61 85 -94 122 -170 102 -208 100 -411 -5 -613 -72 -138 -193 -245 -358
-316 -41 -18 -61 -29 -45 -26 52 10 173 72 235 120 110 84 198 215 241 355 33
106 33 264 0 370 -27 88 -50 137 -98 205 -20 28 -26 41 -15 30 37 -35 92 -138
119 -220 23 -70 27 -97 27 -210 0 -115 -3 -139 -27 -210 -88 -263 -303 -443
-578 -486 -134 -21 -255 0 -395 67 -72 34 -108 59 -166 116 -41 40 -52 52 -23
26 66 -59 144 -109 221 -141 67 -28 172 -51 200 -44 12 3 7 5 -12 6 -48 2
-161 39 -234 77 -175 91 -297 243 -345 429 -20 77 -20 252 0 330 26 103 90
220 158 289 194 198 452 268 696 191z m-3152 -7 c-3 -8 -6 -5 -6 6 -1 11 2 17
5 13 3 -3 4 -12 1 -19z m5960 -10 c-3 -7 -5 -2 -5 12 0 14 2 19 5 13 2 -7 2
-19 0 -25z m180 0 c-3 -8 -6 -5 -6 6 -1 11 2 17 5 13 3 -3 4 -12 1 -19z
m-6150 -40 c-3 -7 -5 -2 -5 12 0 14 2 19 5 13 2 -7 2 -19 0 -25z m5980 -10
c-3 -7 -5 -2 -5 12 0 14 2 19 5 13 2 -7 2 -19 0 -25z m180 0 c-3 -8 -6 -5 -6
6 -1 11 2 17 5 13 3 -3 4 -12 1 -19z m-6170 -45 c-3 -10 -5 -4 -5 12 0 17 2
24 5 18 2 -7 2 -21 0 -30z m3414 10 c13 -16 12 -17 -3 -4 -17 13 -22 21 -14
21 2 0 10 -8 17 -17z m2586 -15 c-3 -7 -5 -2 -5 12 0 14 2 19 5 13 2 -7 2 -19
0 -25z m180 0 c-3 -8 -6 -5 -6 6 -1 11 2 17 5 13 3 -3 4 -12 1 -19z m-2702
-38 c21 -22 37 -40 34 -40 -3 0 -23 18 -44 40 -21 22 -37 40 -34 40 3 0 23
-18 44 -40z m-3488 -17 c-3 -10 -5 -4 -5 12 0 17 2 24 5 18 2 -7 2 -21 0 -30z
m6020 0 c-3 -10 -5 -4 -5 12 0 17 2 24 5 18 2 -7 2 -21 0 -30z m-6030 -70 c-3
-10 -5 -2 -5 17 0 19 2 27 5 18 2 -10 2 -26 0 -35z m6057 -107 c11 -102 12
-143 4 -153 -8 -11 -204 -13 -1061 -13 -841 0 -1048 2 -1038 13 9 9 233 12
1049 12 l1037 0 0 70 c0 39 -3 106 -7 150 -4 44 -6 76 -3 70 2 -5 11 -73 19
-149z m-2150 44 c3 -14 -5 -1 -19 29 -14 29 -25 56 -25 60 1 11 37 -63 44 -89z
m-3917 -12 c-2 -13 -4 -5 -4 17 -1 22 1 32 4 23 2 -10 2 -28 0 -40z m3951
-103 c0 -16 -2 -15 -8 5 -11 34 -11 60 0 35 5 -11 8 -29 8 -40z m-3961 23 c-3
-8 -6 -5 -6 6 -1 11 2 17 5 13 3 -3 4 -12 1 -19z m3976 -68 c3 -11 1 -20 -4
-20 -5 0 -9 9 -9 20 0 11 2 20 4 20 2 0 6 -9 9 -20z m-3973 -10 c0 -5 -4 -10
-10 -10 -5 0 -10 5 -10 10 0 6 5 10 10 10 6 0 10 -4 10 -10z m3954 -16 c3 -8
2 -12 -4 -9 -6 3 -10 10 -10 16 0 14 7 11 14 -7z m-1870 -430 c45 -158 137
-304 267 -428 110 -105 205 -162 347 -209 518 -173 1053 92 1228 607 13 38 29
75 35 82 10 12 181 14 1044 14 982 0 1034 -1 1055 -18 22 -18 22 -20 11 -123
-81 -702 -385 -1332 -881 -1829 -768 -770 -1873 -1071 -2933 -801 -560 143
-1054 438 -1467 876 -41 44 -3 10 85 -75 352 -341 738 -577 1193 -729 146 -49
420 -113 471 -110 9 0 -47 14 -124 29 -259 53 -551 159 -804 291 -896 469
-1509 1362 -1611 2349 -6 58 -13 114 -15 125 -4 20 0 20 1038 17 l1042 -2 19
-66z m40 -15 c30 -109 109 -249 189 -336 22 -24 37 -43 33 -43 -9 0 -63 62
-104 119 -43 59 -104 180 -127 251 -10 30 -22 61 -28 68 -7 9 -6 11 5 7 8 -3
23 -33 32 -66z m337 -126 c13 -16 12 -17 -3 -4 -17 13 -22 21 -14 21 2 0 10
-8 17 -17z m-61 -298 c19 -19 32 -35 29 -35 -3 0 -20 16 -39 35 -19 19 -32 35
-29 35 3 0 20 -16 39 -35z m61 -52 c13 -16 12 -17 -3 -4 -17 13 -22 21 -14 21
2 0 10 -8 17 -17z m-1816 -1163 c10 -11 16 -20 13 -20 -3 0 -13 9 -23 20 -10
11 -16 20 -13 20 3 0 13 -9 23 -20z m45 -55 c13 -14 21 -25 18 -25 -2 0 -15
11 -28 25 -13 14 -21 25 -18 25 2 0 15 -11 28 -25z m1783 -1222 c-7 -2 -19 -2
-25 0 -7 3 -2 5 12 5 14 0 19 -2 13 -5z m60 -10 c-7 -2 -21 -2 -30 0 -10 3 -4
5 12 5 17 0 24 -2 18 -5z m60 -10 c-7 -2 -19 -2 -25 0 -7 3 -2 5 12 5 14 0 19
-2 13 -5z m85 -10 c-10 -2 -26 -2 -35 0 -10 3 -2 5 17 5 19 0 27 -2 18 -5z
m99 -9 c-3 -3 -12 -4 -19 -1 -8 3 -5 6 6 6 11 1 17 -2 13 -5z"/>
<path d="M3885 4396 c-143 -45 -250 -153 -290 -291 -27 -91 -17 -212 23 -295
33 -71 127 -174 150 -165 7 2 10 1 7 -5 -8 -13 53 -42 70 -33 10 6 -1 16 -41
37 -66 35 -133 107 -171 184 -25 52 -28 67 -28 162 0 98 3 110 33 172 38 79
115 153 200 195 51 25 68 27 162 28 98 0 109 -2 172 -33 132 -65 218 -193 226
-337 12 -227 -123 -397 -341 -430 -26 -4 -49 -11 -52 -14 -2 -4 24 -4 58 1
184 25 329 171 358 361 24 152 -52 324 -179 406 -92 59 -264 87 -357 57z m-46
-782 c14 -12 -19 -1 -35 12 -18 14 -18 14 6 3 14 -6 27 -13 29 -15z"/>
<path d="M3860 3590 c8 -5 22 -9 30 -9 10 0 8 3 -5 9 -27 12 -43 12 -25 0z"/>
<path d="M3918 3573 c6 -2 18 -2 25 0 6 3 1 5 -13 5 -14 0 -19 -2 -12 -5z"/>
<path d="M4118 3343 c6 -2 18 -2 25 0 6 3 1 5 -13 5 -14 0 -19 -2 -12 -5z"/>
<path d="M4053 3333 c9 -2 25 -2 35 0 9 3 1 5 -18 5 -19 0 -27 -2 -17 -5z"/>
<path d="M7021 3668 c-71 -588 -272 -1079 -635 -1548 -100 -130 -347 -378
-484 -488 -211 -169 -493 -336 -737 -438 -49 -20 -162 -61 -250 -90 -188 -62
-193 -71 -8 -15 1061 327 1874 1227 2092 2320 29 141 53 343 43 353 -5 5 -14
-37 -21 -94z"/>
<path d="M4728 1043 c7 -3 16 -2 19 1 4 3 -2 6 -13 5 -11 0 -14 -3 -6 -6z"/>
<path d="M4688 1033 c7 -3 16 -2 19 1 4 3 -2 6 -13 5 -11 0 -14 -3 -6 -6z"/>
<path d="M4638 1023 c6 -2 18 -2 25 0 6 3 1 5 -13 5 -14 0 -19 -2 -12 -5z"/>
<path d="M4588 1013 c6 -2 18 -2 25 0 6 3 1 5 -13 5 -14 0 -19 -2 -12 -5z"/>
<path d="M4533 1003 c9 -2 23 -2 30 0 6 3 -1 5 -18 5 -16 0 -22 -2 -12 -5z"/>
<path d="M4478 993 c6 -2 18 -2 25 0 6 3 1 5 -13 5 -14 0 -19 -2 -12 -5z"/>
<path d="M3580 979 c25 -4 61 -7 80 -7 29 1 26 2 -15 8 -69 11 -126 10 -65 -1z"/>
<path d="M4413 983 c9 -2 23 -2 30 0 6 3 -1 5 -18 5 -16 0 -22 -2 -12 -5z"/>
<path d="M4328 973 c6 -2 18 -2 25 0 6 3 1 5 -13 5 -14 0 -19 -2 -12 -5z"/>
<path d="M3733 963 c15 -2 37 -2 50 0 12 2 0 4 -28 4 -27 0 -38 -2 -22 -4z"/>
<path d="M4218 963 c12 -2 32 -2 45 0 12 2 2 4 -23 4 -25 0 -35 -2 -22 -4z"/>
<path d="M3943 953 c32 -2 81 -2 110 0 29 2 3 3 -58 3 -60 0 -84 -1 -52 -3z"/>
<path d="M3563 7233 c9 -2 25 -2 35 0 9 3 1 5 -18 5 -19 0 -27 -2 -17 -5z"/>
<path d="M3445 7219 c-20 -5 -9 -6 30 -2 33 3 62 7 64 9 8 7 -63 2 -94 -7z"/>
<path d="M3378 7203 c6 -2 18 -2 25 0 6 3 1 5 -13 5 -14 0 -19 -2 -12 -5z"/>
</g>
</svg>
