<?xml version="1.0" standalone="no"?>
<!DOCTYPE svg PUBLIC "-//W3C//DTD SVG 20010904//EN"
 "http://www.w3.org/TR/2001/REC-SVG-20010904/DTD/svg10.dtd">
<svg version="1.0" xmlns="http://www.w3.org/2000/svg"
 width="512.000000pt" height="512.000000pt" viewBox="0 0 512.000000 512.000000"
 preserveAspectRatio="xMidYMid meet">

<g transform="translate(0.000000,512.000000) scale(0.100000,-0.100000)"
fill="#000000" stroke="none">
<path d="M2310 4679 c-222 -26 -476 -101 -686 -204 -424 -206 -773 -555 -979
-978 -142 -293 -224 -642 -214 -919 4 -84 7 -99 31 -134 15 -21 44 -50 65 -64
l37 -25 695 -3 696 -3 39 -81 c76 -162 250 -294 437 -334 274 -59 575 86 695
335 l39 80 543 1 c525 0 542 -1 542 -19 0 -45 -35 -195 -71 -304 -93 -285
-272 -558 -490 -746 -657 -569 -1601 -569 -2258 0 -184 159 -337 373 -454 637
-62 139 -220 182 -330 91 -58 -48 -80 -99 -75 -178 3 -57 13 -84 70 -201 214
-435 544 -767 973 -980 190 -94 374 -154 600 -195 123 -22 423 -31 566 -16
731 76 1371 525 1695 1187 140 286 221 633 212 907 -3 98 -5 108 -33 148 -16
23 -50 53 -74 66 l-44 23 -686 0 -686 1 -39 81 c-100 206 -331 348 -566 348
-236 0 -467 -142 -566 -347 l-39 -82 -542 0 -543 -1 0 23 c0 43 40 210 75 314
142 423 450 777 853 978 546 273 1200 233 1704 -104 279 -186 501 -451 623
-741 28 -66 49 -100 80 -129 129 -119 331 -40 352 137 6 55 -18 125 -98 282
-322 633 -942 1063 -1659 1150 -99 12 -382 11 -490 -1z m364 -1939 c20 -14 49
-43 64 -64 24 -35 27 -49 27 -116 0 -67 -3 -81 -27 -116 -15 -21 -44 -50 -65
-64 -31 -21 -48 -25 -113 -25 -65 0 -82 4 -113 25 -21 14 -50 43 -65 64 -24
35 -27 49 -27 117 0 70 3 81 30 120 45 64 104 91 186 87 50 -3 75 -10 103 -28z"/>
</g>
</svg>
